<?xml version="1.0" encoding="utf-8"?>
<!DOCTYPE svg PUBLIC "-//W3C//DTD SVG 1.1//EN" "http://www.w3.org/Graphics/SVG/1.1/DTD/svg11.dtd">
<svg version="1.1" id="Layer_1" xmlns="http://www.w3.org/2000/svg" xmlns:xlink="http://www.w3.org/1999/xlink" x="0px" y="0px"
	 width="55px" height="55px" viewBox="0 0 55 55" style="enable-background:new 0 0 55 55;" xml:space="preserve">
<g>
	<path d="M45,16.5c0,1.059-0.328,2.068-0.984,3.033s-1.474,1.787-2.451,2.471c-5.035,3.496-8.17,5.672-9.401,6.529
		c-0.134,0.094-0.419,0.299-0.854,0.613c-0.436,0.314-0.798,0.568-1.085,0.762c-0.288,0.195-0.637,0.412-1.045,0.654
		c-0.408,0.24-0.794,0.279-1.155,0.398C27.663,31.082,27.328,31,27.021,31H27h-0.021c-0.308,0-0.643,0.082-1.004-0.039
		c-0.361-0.119-0.747-0.229-1.155-0.47c-0.408-0.242-0.757-0.423-1.045-0.618c-0.288-0.193-0.649-0.43-1.085-0.744
		c-0.435-0.314-0.72-0.511-0.854-0.604c-1.219-0.857-2.973-2.075-5.264-3.661c-2.29-1.588-3.663-2.539-4.118-2.861
		c-0.83-0.562-1.613-1.335-2.351-2.319C9.368,18.698,9,17.785,9,16.941C9,15.896,9,15,9,15s2.183,0,3.214,0h29.572
		C42.656,15,45,15,45,15S45,15.615,45,16.5z M45,22.406v15.951C45,39.24,45,42,45,42s-2.33,0-3.214,0H12.214C11.33,42,9,42,9,42
		s0-2.76,0-3.643V22.406c0.589,0.656,1.266,1.238,2.029,1.748c4.848,3.293,8.176,5.604,9.984,6.93
		c0.763,0.562,1.383,1.002,1.858,1.316c0.475,0.314,1.107,0.708,1.898,1.036C25.561,33.765,26.297,34,26.979,34H27h0.021
		c0.683,0,1.419-0.235,2.209-0.563s1.423-0.687,1.898-1.001s1.096-0.771,1.858-1.334c2.277-1.646,5.611-3.966,10.005-6.938
		C43.755,23.64,44.424,23.049,45,22.406z"/>
</g>
</svg>
