<?xml version="1.0" encoding="utf-8"?>
<!DOCTYPE svg PUBLIC "-//W3C//DTD SVG 1.1//EN" "http://www.w3.org/Graphics/SVG/1.1/DTD/svg11.dtd">
<svg version="1.1" id="Layer_1" xmlns="http://www.w3.org/2000/svg" xmlns:xlink="http://www.w3.org/1999/xlink" x="0px" y="0px"
	 width="100px" height="100px" viewBox="0 0 100 100" style="enable-background:new 0 0 100 100;" xml:space="preserve">
<path style="fill:#92C131;" d="M100,94c0,3.313-2.687,6-6,6H6c-3.313,0-6-2.687-6-6V6c0-3.313,2.687-6,6-6h88c3.313,0,6,2.687,6,6
	V94z"/>
<g>
	<path style="fill:#FFFFFF;" d="M84,27.25v42.5c0,1.719,0,6.25,0,6.25s-4.531,0-6.25,0h-57.5C18.531,76,14,76,14,76s0-4.531,0-6.25
		v-42.5c0-1.719,0-6.25,0-6.25s4.531,0,6.25,0h57.5c1.719,0,6.25,0,6.25,0S84,25.531,84,27.25z M79,28.695c0-0.052,0-0.195,0-0.43
		s0-0.41,0-0.527s0.013-0.517,0-0.738c-0.014-0.221,0.064,0.104,0,0c-0.065-0.104,0.078-0.869,0-1c-0.078-0.13,0.156,0.065,0,0
		c-0.156-0.064-1.042,0-1.25,0h-57.5c-0.339,0-1.003-0.247-1.25,0c-0.248,0.248,0,0.912,0,1.25c0,4.375,1.914,8.073,5.742,11.094
		c5.025,3.959,10.247,8.086,15.664,12.383c0.156,0.131,0.611,0.515,1.367,1.152c0.755,0.639,1.354,1.127,1.797,1.465
		c0.442,0.339,1.021,0.749,1.738,1.23c0.716,0.482,1.373,0.84,1.973,1.074C47.88,55.883,48.439,56,48.961,56H49h0.039
		c0.521,0,1.08-0.117,1.68-0.352c0.599-0.234,1.256-0.592,1.973-1.074c0.716-0.481,1.295-0.892,1.738-1.23
		c0.442-0.338,1.041-0.826,1.797-1.465c0.755-0.638,1.211-1.021,1.367-1.152c5.416-4.297,10.638-8.424,15.664-12.383
		c1.406-1.119,2.715-2.623,3.926-4.512C78.395,31.944,79,30.232,79,28.695z M79,69.75v-30c-0.834,0.938-1.732,1.797-2.695,2.578
		c-6.979,5.365-12.526,9.766-16.641,13.203c-1.328,1.12-2.409,1.992-3.242,2.617c-0.834,0.625-1.96,1.257-3.379,1.895
		C51.623,60.682,50.289,61,49.039,61H49h-0.039c-1.25,0-2.585-0.318-4.004-0.957c-1.42-0.638-2.546-1.27-3.379-1.895
		c-0.834-0.625-1.914-1.497-3.242-2.617c-4.115-3.438-9.662-7.838-16.641-13.203c-0.964-0.781-1.862-1.641-2.695-2.578v30
		c0,0.339-0.248,1.003,0,1.25c0.247,0.248,0.911,0,1.25,0h57.5c0.338,0,1.002,0.248,1.25,0C79.247,70.753,79,70.089,79,69.75z"/>
</g>
</svg>
